<?xml version="1.0" encoding="UTF-8" standalone="no"?>
<!-- Created with Inkscape (http://www.inkscape.org/) -->

<svg
   xmlns:dc="http://purl.org/dc/elements/1.1/"
   xmlns:cc="http://creativecommons.org/ns#"
   xmlns:rdf="http://www.w3.org/1999/02/22-rdf-syntax-ns#"
   xmlns:svg="http://www.w3.org/2000/svg"
   xmlns="http://www.w3.org/2000/svg"
   xmlns:sodipodi="http://sodipodi.sourceforge.net/DTD/sodipodi-0.dtd"
   xmlns:inkscape="http://www.inkscape.org/namespaces/inkscape"
   width="430"
   height="280"
   id="svg2"
   version="1.1"
   inkscape:version="0.48.4 r9939"
   inkscape:export-filename="C:\Users\Malte\Documents\Projekte\verboten\Grafiken\Weckergehäuse\Flagge_Konturen.png"
   inkscape:export-xdpi="90"
   inkscape:export-ydpi="90"
   sodipodi:docname="Flagge_Konturen.svg">
  <defs
     id="defs4" />
  <sodipodi:namedview
     id="base"
     pagecolor="#ffffff"
     bordercolor="#666666"
     borderopacity="1.0"
     inkscape:pageopacity="0.0"
     inkscape:pageshadow="2"
     inkscape:zoom="0.49497475"
     inkscape:cx="512.93674"
     inkscape:cy="199.73973"
     inkscape:document-units="px"
     inkscape:current-layer="g3842"
     showgrid="false"
     inkscape:window-width="1680"
     inkscape:window-height="988"
     inkscape:window-x="-8"
     inkscape:window-y="-8"
     inkscape:window-maximized="1" />
  <metadata
     id="metadata7">
    <rdf:RDF>
      <cc:Work
         rdf:about="">
        <dc:format>image/svg+xml</dc:format>
        <dc:type
           rdf:resource="http://purl.org/dc/dcmitype/StillImage" />
        <dc:title />
      </cc:Work>
    </rdf:RDF>
  </metadata>
  <g
     inkscape:label="Ebene 1"
     inkscape:groupmode="layer"
     id="layer1"
     transform="translate(0,-772.36218)">
    <g
       id="g4783"
       transform="translate(-45.533078,688.4276)">
      <g
         id="g4923">
        <g
           id="g3842"
           transform="translate(-40.406102,-0.182746)">
          <g
             id="g5790">
            <g
               id="g5744">
              <g
                 style="opacity:1"
                 id="g4578">
                <g
                   id="g4540"
                   transform="translate(-9.5338983,-9.5338983)">
                  <g
                     id="g4468">
                    <g
                       id="g4433">
                      <g
                         id="g4270"
                         transform="translate(-309.35922,-170.78426)">
                        <g
                           id="g4372">
                          <g
                             id="g4402"
                             transform="translate(367.03636,179.02386)">
                            <g
                               id="g4342">
                              <g
                                 id="g4316">
                                <g
                                   id="g4292">
                                <g
                                   id="g4250">
                                <rect
                                   y="79.406296"
                                   x="257.6745"
                                   height="174.15501"
                                   width="34.456474"
                                   id="rect3993"
                                   style="fill:#ffffff;fill-opacity:1;fill-rule:nonzero;stroke:none" />
                                <g
                                   id="g4226">
                                <g
                                   id="g4204">
                                <g
                                   transform="translate(366.52542,2.118644)"
                                   id="g3961">
                                <g
                                   id="g3838"
                                   transform="translate(-2188.1981,241.51786)">
                                <rect
                                   y="-340.75494"
                                   x="-559.10199"
                                   height="63.559322"
                                   width="605.93219"
                                   id="rect3826"
                                   style="fill:#ffffff;fill-opacity:1;fill-rule:nonzero;stroke:none" />
                                <g
                                   id="g3979">
                                <g
                                   transform="translate(2401.2706,121.18545)"
                                   id="g3915">
                                <g
                                   id="g3832">
                                <path
                                   id="path3918"
                                   style="fill:#000000"
                                   d="m -546.76861,-123.96181 0,-152.68251 226.92262,0 226.922625,0 0,152.68251 0,152.682495 -226.922625,0 -226.92262,0 z M -94.324115,27.319935 c -0.67268,-0.43472 -81.667495,-0.67893 -225.171685,-0.67893 -143.50419,0 -224.49899,0.24421 -225.17167,0.67893 -0.67944,0.43908 78.86596,0.67892 225.17167,0.67892 146.30571,0 225.851115,-0.23984 225.171685,-0.67892 z M -544.31728,-137.04221 c 0.38521,-0.13201 16.30131,-10.63746 35.36911,-23.34546 l 34.66873,-23.10544 10.73913,-4.4e-4 c 8.26979,-3.3e-4 10.67652,0.20087 10.46681,0.87504 -0.14978,0.48151 -19.59152,13.79746 -43.20386,29.59099 -41.71913,27.90459 -42.85273,28.72149 -40.14137,28.9268 2.63683,0.19967 5.15695,-1.37377 45.86222,-28.63416 24.07938,-16.126 43.41829,-28.63146 43.85723,-28.36018 0.55903,0.3455 0.78517,8.64305 0.78517,28.80926 l 0,28.32399 1.75094,0 1.75095,0 0,-31.51703 c 0,-24.72104 -0.18878,-31.52741 -0.87547,-31.56515 -0.48151,-0.0265 -23.56774,-0.10525 -51.30273,-0.17509 l -50.42724,-0.12698 0,-10.85587 0,-10.85587 51.28908,-0.17963 51.28907,-0.17964 0.18874,-32.56324 0.18874,-32.56325 -2.10114,-4e-5 -2.10113,-4e-5 0.19024,29.08211 c 0.16345,24.98769 0.0461,29.13741 -0.83353,29.47496 -0.6091,0.23373 -7.49459,-3.97944 -16.99932,-10.40173 -8.78656,-5.93703 -27.87324,-18.7452 -42.41484,-28.46261 -14.54161,-9.71741 -26.43929,-18.12348 -26.43929,-18.68014 0,-0.77803 -1.04542,-1.01213 -4.51992,-1.01213 l -4.51993,0 44.77933,29.94118 c 29.41241,19.66625 44.72049,30.3017 44.60785,30.99174 -0.14115,0.86473 -1.90446,1.08453 -9.96804,1.24257 l -9.79655,0.19201 -32.21741,-21.47375 c -17.71957,-11.81055 -34.20813,-22.87996 -36.64123,-24.59868 l -4.42381,-3.12495 0.22154,-6.5204 c 0.12185,-3.58622 -0.0148,-6.37332 -0.30373,-6.19354 -0.28891,0.17977 -0.44911,67.83351 -0.356,150.34162 0.14457,128.1023045 0.22129,138.104924 0.52529,68.478955 0.23319,-53.410175 0.59758,-81.618565 1.05637,-81.775785 z m -1.05057,-26.84117 0,-19.6106 29.39391,0 c 24.78524,0 29.33543,0.15241 29.0209,0.97207 -0.48098,1.25342 -55.95984,38.24912 -57.35848,38.24912 -0.91637,0 -1.05633,-2.59835 -1.05633,-19.61059 z m 29.06268,-0.70038 25.76204,-17.15928 -26.1197,-0.18373 c -14.36583,-0.10104 -26.21282,-0.0906 -26.32663,0.0232 -0.11381,0.11381 -0.30154,8.12648 -0.41718,17.80592 -0.152,12.72221 0.005,17.47071 0.56458,17.13607 0.42616,-0.25461 12.36776,-8.18459 26.53689,-17.62218 z m -29.06268,-68.2869 c 0,-15.48954 0.19588,-19.96079 0.87447,-19.96079 1.47109,0 57.95732,38.00584 57.95732,38.99564 0,0.75296 -5.49505,0.92593 -29.41589,0.92593 l -29.4159,0 z m 52.80856,16.58912 c -2.58996,-1.86878 -47.98073,-32.21087 -49.83195,-33.31086 -0.69111,-0.41065 -0.87547,3.24947 -0.87547,17.38078 l 0,17.90099 26.71946,0 26.71946,0 z M -95.966545,25.128725 c 0.78371,-0.65042 0.94205,-25.71030054 0.94205,-149.101365 0,-134.55299 -0.10275,-148.35897 -1.10699,-148.74433 -0.60884,-0.23364 -51.302735,-0.41926 -112.653095,-0.41249 l -111.54611,0.0123 -43.62936,29.22817 -43.62935,29.22814 7.97731,0.20232 7.97731,0.20233 36.10337,-24.19029 c 19.85685,-13.30466 36.3245,-24.19029 36.59477,-24.19029 0.27028,0 0.49141,2.51569 0.49141,5.59042 l 0,5.59042 -27.57748,18.39754 -27.57748,18.39755 27.57748,0.18313 27.57748,0.18313 0,3.49834 0,3.49834 -52.0031,-0.17957 -52.0031,-0.17959 -0.35019,-32.65545 -0.35019,-32.65546 -7.72923,-0.12283 c -4.25107,-0.0676 -8.2695,0.0845 -8.92983,0.33789 -1.10974,0.42585 -1.20059,2.89277 -1.20059,32.59864 l 0,32.13793 -51.30273,0.17964 -51.30271,0.17964 -0.21123,7.00379 c -0.11618,3.85208 -0.0235,8.02603 0.20597,9.27544 l 0.41721,2.27167 50.92164,0.17966 50.92166,0.17966 0.18198,33.13154 0.18197,33.13154 -3.33368,-0.21376 -3.33368,-0.21374 -0.35019,-27.8051 -0.35019,-27.80509 -42.37289,28.37295 -42.3729,28.37295 -5.07774,-0.42197 -5.07774,-0.42197 0,74.268179 0,74.26818 223.17906,-0.003 c 163.25223,-0.002 223.432015,-0.2131 224.121105,-0.78499 z M -213.61647,-2.5574355 c -0.2538,-0.25381 -0.26498,-2.5755599 -0.0249,-5.1594499 l 0.43663,-4.6979896 -4.81209,-0.61867 c -6.27313,-0.80651 -6.55278,-1.9582 -1.31924,-5.43308 l 3.91497,-2.59939 -2.13542,-3.73233 c -2.26507,-3.95893 -2.69706,-6.018 -1.25994,-6.00556 0.48151,0.004 2.42262,0.47693 4.31358,1.05057 1.89096,0.57364 3.78358,1.04299 4.20583,1.04299 0.42225,0 1.50099,-1.89102 2.3972,-4.20227 0.98198,-2.53244 2.04503,-4.20227 2.67528,-4.20227 0.61134,0 1.80898,1.76872 2.88281,4.25744 2.01221,4.66352 1.55398,4.50946 8.01603,2.69519 1.81736,-0.51024 3.54844,-0.68355 3.84685,-0.38514 0.29842,0.29841 -0.47938,2.38737 -1.72843,4.64213 -1.24905,2.25477 -2.26938,4.35826 -2.26739,4.67442 0.002,0.31617 1.7338,1.67795 3.84847,3.02618 5.55,3.53845 5.23716,4.36627 -1.99134,5.26942 l -3.96185,0.49501 0,5.1721296 c 0,3.5210599 -0.26509,5.1721399 -0.8304,5.1721399 -0.45672,0 -2.32549,-1.26068 -4.15283,-2.8015099 -1.82733,-1.54084 -3.59588,-2.80152 -3.93011,-2.80152 -0.33422,0 -1.8387,1.26068 -3.34328,2.80152 -2.65665,2.7206499 -3.82698,3.2935299 -4.78047,2.3400399 z m 15.05829,-6.4824699 -0.27364,-4.8427996 3.93699,-0.49189 c 2.16535,-0.27054 4.06806,-0.70397 4.22826,-0.96318 0.1602,-0.2592 -1.10465,-1.35441 -2.81077,-2.43378 -3.60783,-2.28248 -3.77274,-3.25895 -1.29814,-7.68649 l 1.8039,-3.22754 -2.94252,1.03819 c -5.14635,1.81574 -5.90815,1.52471 -7.72474,-2.95109 l -1.61913,-3.98927 -1.43446,3.98927 c -1.60699,4.46911 -2.04386,4.64201 -7.5254,2.9785 l -3.28069,-0.99561 2.05503,3.48534 c 1.13026,1.91693 2.05447,3.86543 2.05377,4.32999 -6.8e-4,0.46455 -1.4334,1.74945 -3.1838,2.85532 -1.75041,1.10586 -2.98513,2.20896 -2.74384,2.45132 0.24131,0.24236 2.06798,0.75583 4.05929,1.14104 l 3.62055,0.70038 -0.2165,4.5524596 -0.21651,4.5524599 2.65812,-2.4513299 c 1.46197,-1.34823 2.76755,-2.6877 2.90129,-2.97661 0.52396,-1.1318096 2.00856,-0.3719596 5.02909,2.57399 1.73344,1.69064 3.16201,3.1031999 3.1746,3.1390099 0.0126,0.0358 -0.10025,-2.1141399 -0.25075,-4.7776799 z M -445.15275,-33.625035 c 0.0335,-1.44453 0.27188,-5.3873 0.52963,-8.76173 0.52472,-6.86926 0.87278,-6.38554 -5.14307,-7.14747 -7.15912,-0.90672 -11.55625,-1.97566 -11.55625,-2.80931 0,-0.46843 3.1548,-2.99938 7.01067,-5.62433 6.62431,-4.5096 6.95844,-4.85327 6.06279,-6.23605 -4.27949,-6.60704 -7.56941,-13.20084 -6.91364,-13.85661 0.51578,-0.51578 3.1462,-0.01003 8.76262,1.6848 l 8.02559,2.42183 3.04826,-7.95792 c 2.17006,-5.665247 3.34837,-7.90012 4.08998,-7.7573 0.60051,0.11564 2.25181,3.29327 3.89872,7.50239 1.57135,4.01597 3.21186,7.42007 3.64558,7.56464 0.43372,0.14457 4.15779,-0.73875 8.27571,-1.96293 5.72374,-1.70156 7.61359,-2.02116 8.02408,-1.35698 0.32191,0.52086 -0.85993,3.28758 -2.95095,6.90828 -1.91835,3.32171 -3.78046,6.5861 -4.13801,7.25421 -0.5446,1.01759 0.42976,1.92751 6.00375,5.60667 9.2277,6.09081 9.08753,6.64896 -2.06771,8.23369 -3.08167,0.43778 -6.08231,0.93267 -6.6681,1.09975 -0.91682,0.2615 -0.98715,1.44216 -0.50522,8.48192 0.79773,11.65295 1.0518,11.618 -9.78299,1.34533 l -3.64912,-3.4598 -6.26576,5.72667 c -3.44617,3.14967 -6.61042,5.72667 -7.03165,5.72667 -0.42896,0 -0.73906,-1.15544 -0.70491,-2.62642 z m 12.24415,-10.05888 c 0.87715,-1.41926 2.81385,-0.3601 7.88391,4.31165 2.94479,2.71345 5.44267,4.66805 5.55084,4.34355 0.10816,-0.32449 -0.0735,-3.56889 -0.40362,-7.20977 -0.33015,-3.64088 -0.46489,-6.99861 -0.29942,-7.46164 0.16547,-0.46302 1.76999,-1.05177 3.56561,-1.30833 1.79562,-0.25655 5.28277,-0.823225 7.74921,-1.25927 l 4.48444,-0.79281 -6.09217,-4.05296 c -3.35069,-2.229127 -6.26127,-4.49364 -6.46795,-5.03224 -0.31736,-0.82701 2.86274,-7.01121 6.55828,-12.75364 0.94498,-1.4684 0.69734,-1.43812 -6.36135,0.77784 -4.03954,1.26815 -7.69125,2.09149 -8.11491,1.82966 -0.63806,-0.39434 -3.70799,-7.1035 -5.94209,-12.98607 -0.41793,-1.10043 -1.11232,0.0876 -3.2387,5.54131 -1.4887,3.81814 -3.06867,7.16577 -3.51104,7.43917 -0.77995,0.48203 -1.68705,0.260062 -10.98475,-2.68828 l -4.36913,-1.38547 2.58102,4.65156 c 1.41956,2.558351 3.14812,5.59706 3.84124,6.75269 0.69312,1.15562 1.26139,2.326 1.26283,2.60085 10e-4,0.27484 -3.36201,1.88367 -6.36375,4.90265 l -6.36637,4.40293 2.68938,0.51648 c 1.47916,0.284064 4.89557,0.914411 7.59203,1.40076 l 4.90265,0.88427 -0.2297,7.9998 -0.22969,7.99979 4.96442,-4.40129 c 2.73044,-2.420719 5.13739,-4.68115 5.34878,-5.02319 z m 249.89023,-48.93597 c 0.2404,-1.25192 0.62567,-3.101748 0.85616,-4.110728 0.35674,-1.56163 -0.007,-2.13462 -2.44426,-3.852087 -3.93962,-2.77595 -3.52152,-4.06489 1.40302,-4.32537 l 3.90722,-0.20668 1.02237,-3.29213 c 1.42642,-4.59315 2.95873,-4.65683 4.44413,-0.18469 l 1.17579,3.53998 3.75446,0 c 2.09262,0 3.9767,0.35959 4.25655,0.81239 0.30011,0.48558 -0.72476,1.85856 -2.54752,3.41287 l -3.04961,2.600467 0.83791,2.7967 c 0.46085,1.538188 0.83791,3.311688 0.83791,3.941108 0,1.74205 -2.17365,1.33693 -4.88425,-0.91032 l -2.43292,-2.01705 -2.57052,2.03589 c -3.55927,2.81899 -5.13796,2.73591 -4.56644,-0.24035 z m 7.34203,-3.326788 c 0.78452,0 1.62014,0.31347 1.85693,0.69661 0.2368,0.38313 0.99569,0.999068 1.68644,1.368748 1.16315,0.6225 1.19996,0.46255 0.49844,-2.165688 -0.72739,-2.72518 -0.66714,-2.91853 1.51765,-4.870637 l 2.27511,-2.03282 -3.16543,0 c -3.16002,0 -3.16689,-0.006 -4.00873,-3.15295 l -0.84329,-3.15295 -1.09609,2.97786 c -1.02625,2.78811 -1.28268,2.99147 -4.02442,3.19164 l -2.92833,0.21379 2.23182,1.99412 c 2.13899,1.911197 2.20024,2.112337 1.47291,4.837287 l -0.75888,2.843168 1.92973,-1.37409 c 1.06136,-0.755748 2.57163,-1.374088 3.35614,-1.374088 z m -95.28155,-11.577907 c -0.20452,-0.20453 -0.21769,-2.52661 -0.0293,-5.1602 l 0.34261,-4.78834 -3.41429,-0.4931 c -7.99112,-1.15408 -8.37969,-1.97553 -2.71389,-5.73741 2.11864,-1.4067 3.85208,-2.65673 3.85208,-2.77784 0,-0.12112 -0.94551,-1.8238 -2.10114,-3.78375 -3.41458,-5.79115 -2.79,-6.54048 3.7883,-4.54488 1.89096,0.57364 3.652,1.04299 3.91342,1.04299 0.26142,0 1.0719,-1.75513 1.80106,-3.9003 1.36084,-4.00349 2.56409,-5.621 3.67205,-4.93624 0.34615,0.21394 1.3224,2.28967 2.16944,4.61275 0.84703,2.32309 1.79868,4.22379 2.11476,4.22379 0.31609,0 1.91463,-0.47276 3.55233,-1.05057 3.43777,-1.21291 6.3034,-1.36729 6.3034,-0.33958 0,0.39105 -0.94551,2.38635 -2.10113,4.434 -1.15563,2.04765 -2.10114,3.93068 -2.10114,4.1845 0,0.25383 1.73344,1.61244 3.85209,3.01915 2.11864,1.40669 3.85208,2.97148 3.85208,3.4773 0,0.52045 -1.14011,1.1037 -2.62642,1.3436 -1.44453,0.23316 -3.70351,0.64708 -5.01994,0.91982 l -2.39352,0.49588 0.16428,5.06514 c 0.19983,6.16121 -0.35062,6.35747 -5.04099,1.79734 l -3.36036,-3.26705 -3.3173,3.26743 c -3.14177,3.09453 -4.30604,3.74806 -5.15853,2.89557 z m 8.30712,-8.03269 c 0.27272,0 1.93441,1.21399 3.69263,2.69777 l 3.19678,2.69777 0,-4.61113 0,-4.61113 3.80661,-0.55086 c 2.09364,-0.30297 3.92032,-0.66456 4.05928,-0.80353 0.13897,-0.13897 -1.17947,-1.15747 -2.92988,-2.26333 -3.76531,-2.37884 -3.92498,-3.45475 -1.17575,-7.92281 l 2.00931,-3.26555 -3.58516,1.23918 c -5.27929,1.82475 -5.6893,1.70656 -7.08401,-2.04188 -0.68079,-1.82974 -1.44907,-3.56375 -1.70728,-3.85335 -0.25821,-0.2896 -1.04554,1.07544 -1.74962,3.03342 -0.70408,1.95799 -1.7064,3.72354 -2.22739,3.92347 -0.52098,0.19991 -2.42461,-0.13991 -4.23028,-0.75515 -1.80566,-0.61526 -3.41494,-0.98672 -3.57619,-0.82548 -0.16124,0.16124 0.52255,1.68507 1.51953,3.38629 0.99698,1.70121 1.81269,3.45102 1.81269,3.88845 0,0.43744 -1.59339,1.86839 -3.54087,3.1799 l -3.54087,2.38456 3.36577,0.47545 c 6.24229,0.88179 6.0279,0.65146 5.46849,5.87518 l -0.49666,4.63775 3.2085,-2.9575 c 1.76468,-1.62662 3.43165,-2.95749 3.70437,-2.95749 z m 113.46912,-5.36412 c -0.25381,-0.25381 -0.26431,-2.58278 -0.0233,-5.1755 l 0.43813,-4.71403 -3.06999,-0.46501 c -8.43127,-1.27711 -8.78597,-1.9397 -3.07,-5.73489 2.11864,-1.4067 3.85208,-2.65673 3.85208,-2.77784 0,-0.12112 -0.94551,-1.8238 -2.10113,-3.78375 -3.41459,-5.79115 -2.79,-6.54048 3.78829,-4.54488 1.89096,0.57364 3.6353,1.04299 3.8763,1.04299 0.24101,0 1.20783,-2.05797 2.14849,-4.57326 1.16426,-3.1132 2.04215,-4.50935 2.74978,-4.37307 0.57172,0.1101 1.8158,2.18107 2.76462,4.60216 1.68694,4.30458 1.77279,4.39183 3.87959,3.94309 1.18496,-0.25239 3.13619,-0.86186 4.33607,-1.35438 3.89565,-1.59907 4.4431,-0.28041 1.84558,4.44546 -1.25193,2.27771 -2.27623,4.32085 -2.27623,4.54029 0,0.21945 1.73343,1.54958 3.85208,2.95586 2.11864,1.40627 3.85208,2.9705 3.85208,3.47605 0,0.59236 -1.74317,1.21321 -4.90265,1.74612 l -4.90265,0.82694 0,5.18956 c 0,3.43433 -0.27154,5.18956 -0.80284,5.18956 -0.44156,0 -2.36087,-1.45735 -4.26513,-3.23856 l -3.46228,-3.23856 -3.288,3.23856 c -3.20285,3.15469 -4.27221,3.72373 -5.21884,2.77709 z m 8.38536,-7.94307 c 0.41269,0 2.14715,1.22951 3.85435,2.73225 l 3.104,2.73224 -0.28091,-4.41154 c -0.31203,-4.90038 -0.48706,-4.71545 5.31754,-5.61859 l 2.99306,-0.46569 -3.16816,-2.41907 c -1.74248,-1.33048 -3.16815,-2.83768 -3.16815,-3.34933 0,-0.51166 0.81019,-2.37987 1.80042,-4.15159 l 1.80043,-3.2213 -3.37628,1.02438 c -5.095,1.54584 -5.49891,1.41146 -6.87511,-2.28726 -0.6808,-1.82974 -1.44908,-3.56375 -1.70729,-3.85335 -0.25821,-0.2896 -1.04554,1.07544 -1.74962,3.03342 -0.70408,1.95799 -1.68045,3.71358 -2.16972,3.90133 -0.48927,0.18775 -2.49703,-0.136 -4.46169,-0.71944 -1.96466,-0.58344 -3.57212,-0.92037 -3.57212,-0.74873 0,0.17165 0.86672,1.9014 1.92604,3.84391 l 1.92604,3.53182 -1.63013,1.35231 c -0.89657,0.74377 -2.46828,1.96286 -3.49268,2.70909 l -1.86256,1.35678 2.79231,0.4534 c 6.66808,1.08272 6.18706,0.58591 5.65186,5.8373 l -0.47806,4.69088 3.03803,-2.97661 c 1.67092,-1.63714 3.3757,-2.97661 3.7884,-2.97661 z m -281.83712,-26.75264 0.18198,-33.12972 52.04165,-0.17959 52.04167,-0.17959 -0.21366,3.33129 -0.21365,3.3313 -27.0623,0.35019 -27.0623,0.35018 27.23739,18.14528 27.2374,18.14528 0,5.49249 c 0,3.02088 -0.19857,5.4925 -0.44125,5.4925 -0.24269,0 -16.55276,-10.79139 -36.24459,-23.98086 l -35.80333,-23.98087 -7.70417,0.0525 c -4.23828,0.0289 -7.65562,0.34079 -7.59627,0.69328 0.0593,0.3524 19.26372,13.42093 42.67642,29.04118 23.4127,15.62025 42.69461,28.77861 42.84867,29.2408 0.20195,0.60587 -1.25094,0.84035 -5.20713,0.84035 l -5.48724,0 -41.49378,-27.66495 c -22.82158,-15.2157 -41.64892,-27.66492 -41.83854,-27.66492 -0.18962,0 -0.42721,12.37043 -0.52798,27.48985 l -0.18323,27.48986 -3.68386,0.21193 -3.68388,0.21193 0.18198,-33.12972 z m 5.43481,3.28996 c 0,-25.78099 0.10428,-28.36533 1.14447,-28.36533 0.62945,0 20.26891,12.78692 43.64323,28.41539 39.63726,26.50212 42.67868,28.40022 45.17069,28.19023 2.5616,-0.21586 0.87801,-1.42199 -40.78136,-29.21579 -29.37649,-19.59907 -43.3351,-29.29858 -43.08851,-29.94118 0.28423,-0.74069 2.63304,-0.95054 10.63943,-0.95054 l 10.27467,0 34.64971,23.16674 c 19.05734,12.74171 34.88609,23.31851 35.175,23.50402 0.2889,0.18549 0.51389,-1.17839 0.49997,-3.03086 l -0.0253,-3.36814 -28.65728,-19.11384 c -20.60369,-13.74228 -28.54705,-19.40108 -28.26508,-20.13589 0.33479,-0.87245 4.53273,-1.02203 28.68259,-1.02203 l 28.29039,0 0,-1.75095 0,-1.75094 -50.42725,0 -50.42725,0 0,31.86722 0,31.86722 1.75095,0 1.75094,0 z m 214.47579,-57.68235 c -0.54717,-0.33816 -0.78087,-2.20028 -0.67391,-5.36957 l 0.16374,-4.85187 -4.54297,-0.71741 c -5.86694,-0.92648 -6.07238,-2.02099 -1.03374,-5.50745 l 3.88766,-2.69006 -2.13208,-3.77784 c -3.37239,-5.97554 -2.87722,-6.84228 2.77057,-4.84962 4.82275,1.70157 5.26284,1.50353 7.00378,-3.15171 2.10629,-5.63216 3.38982,-5.56788 5.57651,0.27927 l 1.67598,4.48154 3.20245,-0.9988 c 5.83285,-1.81918 7.05452,-1.94536 7.05452,-0.72867 0,0.60901 -0.94551,2.71088 -2.10113,4.67083 -1.15563,1.95994 -2.09951,3.78604 -2.09752,4.058 0.002,0.27195 1.73984,1.59755 3.8619,2.94578 5.04424,3.20481 4.81135,4.34429 -1.07349,5.25227 l -4.54297,0.70095 -0.20578,5.07774 c -0.22596,5.57577 -0.79876,6.12853 -3.68934,3.56029 -0.93935,-0.8346 -2.4,-2.1342 -3.24589,-2.88802 l -1.53799,-1.37056 -3.74131,3.19631 c -2.24084,1.9144 -4.07728,2.98867 -4.57899,2.6786 z m 15.00626,-6.92756 -0.1081,-4.72756 3.85208,-0.80793 c 2.11865,-0.44437 4.00967,-0.84204 4.20227,-0.88372 0.19261,-0.0417 -1.14687,-1.05487 -2.97661,-2.25155 -1.82973,-1.19668 -3.32679,-2.70712 -3.32679,-3.35653 0,-0.64942 0.91275,-2.62002 2.02834,-4.37913 l 2.02835,-3.19837 -3.19023,0.96011 c -5.50666,1.65726 -6.2522,1.40974 -7.65565,-2.54177 -0.68407,-1.92604 -1.41557,-3.50189 -1.62557,-3.50189 -0.20999,0 -0.99332,1.57585 -1.74073,3.50189 -1.52543,3.93095 -2.17597,4.15011 -7.53315,2.53783 l -3.2033,-0.96405 2.04143,3.31775 c 1.12278,1.82476 2.04142,3.79714 2.04142,4.38306 0,0.58593 -1.49705,2.04442 -3.32679,3.2411 -1.82974,1.19668 -3.16922,2.20988 -2.97661,2.25155 0.1926,0.0417 2.08362,0.43935 4.20227,0.88372 l 3.85208,0.80793 -0.0652,4.33424 -0.0652,4.33423 2.93889,-2.40819 c 1.61638,-1.32451 3.37917,-2.40364 3.91731,-2.39807 0.53814,0.006 2.23912,1.23512 3.77995,2.73233 1.54083,1.49721 2.85016,2.75334 2.90961,2.79139 0.0595,0.038 0.0595,-2.05822 0,-4.65837 z m -310.24801,62.85896 41.33836,-27.66495 -8.09403,-0.19855 -8.09403,-0.19856 -35.40133,23.66124 -35.40131,23.66123 -0.0817,4.90265 c -0.0449,2.69646 0.061,5.15281 0.23535,5.45855 0.17436,0.30575 1.18176,-0.009 2.23866,-0.70037 1.0569,-0.69096 20.5239,-13.70551 43.25999,-28.92124 z m 177.31201,-55.24945 c 0.51941,-0.32916 0.83014,-1.19106 0.69049,-1.91532 -0.24277,-1.25916 -1.46501,-1.32366 -27.90896,-1.47286 -15.21028,-0.0858 -28.04902,-0.16462 -28.53053,-0.1751 -2.94994,-0.0642 2.12147,-3.89516 27.84004,-21.03041 l 28.71552,-19.13199 0,-3.43234 c 0,-2.55173 -0.22461,-3.30112 -0.87547,-2.92089 -0.48151,0.2813 -16.5453,11.01569 -35.69731,23.8542 l -34.82184,23.34275 -9.75236,0 c -7.86576,0 -9.82761,-0.19613 -10.14141,-1.01387 -0.27869,-0.72625 12.26636,-9.49846 44.224,-30.9239 24.53719,-16.45053 44.74439,-30.01937 44.90489,-30.15298 0.1605,-0.13361 -1.84303,-0.24293 -4.4523,-0.24293 -3.75557,0 -4.66651,0.20224 -4.37166,0.97061 0.25682,0.66927 -12.8749,9.80186 -42.29703,29.4159 -23.46822,15.6449 -42.99182,28.44528 -43.38577,28.44528 -0.47975,0 -0.6535,-9.71337 -0.52621,-29.41612 l 0.19005,-29.41612 -2.80151,0.0555 c -1.54083,0.0305 -2.40755,0.21448 -1.92604,0.40877 0.68253,0.27541 0.87547,7.43945 0.87547,32.50755 l 0,32.15428 48.8514,0.1847 c 26.86827,0.10158 49.16657,0.25648 49.55178,0.34423 0.3852,0.0877 1.12535,-0.10979 1.64476,-0.43896 z m -136.54826,-6.24788 c -4.73087,-3.58231 -84.3429,-56.39627 -85.44741,-56.68511 -1.18375,-0.30955 -1.27299,0.0863 -1.05566,4.68301 0.13056,2.76163 0.53859,5.32235 0.90671,5.69047 0.36813,0.36813 16.40798,11.21881 35.6441,24.11263 l 34.97477,23.4433 8.3239,0.0102 c 8.17434,0.0101 8.29388,-0.0125 6.65359,-1.25455 z m 8.86083,-56.70264 c -0.27158,-0.70774 -8.72258,-0.88099 -41.08657,-0.84231 l -40.74466,0.0487 40.90288,27.28443 40.90289,27.28444 0.18369,-26.44213 c 0.10102,-14.54317 0.0298,-26.84308 -0.15823,-27.33313 z m 68.79843,30.03763 c 19.54288,-13.05014 37.85078,-25.32606 40.68424,-27.27982 l 5.15173,-3.55229 -40.87104,0.14015 -40.87103,0.14015 -0.18332,27.13967 c -0.10082,14.92682 -0.0167,27.13967 0.1868,27.13967 0.20357,0 16.35974,-10.67739 35.90262,-23.72753 z m 172.63159,-33.5284 c -62.11482,-0.0986 -163.75724,-0.0986 -225.87206,0 -62.11481,0.0986 -11.2936,0.17935 112.93603,0.17935 124.22963,0 175.05084,-0.0807 112.93603,-0.17935 z"
                                   inkscape:connector-curvature="0"
                                   sodipodi:nodetypes="cccccccccssssscscssssssscccscscccccccccsssssscssscsscsssscscssssscscscssssscsssscccscscscccccsssccccccccccccsscccsscccccccccccccccscccccsscscsssssscscsscsssssccscscsscsscsscscscscccscscscssssssscscssssscssssscsscsscsssscssssssssscsscscsscccsssscscsscssscssscssscssscsccsscsscsscccssssssscsssssssssscsscsccsscccscsscsssscccssscsscsscccsssssssssssssssscssscsccsscsscssscsssssssscsscsscssccccccccccssscscssscssscccccssssssscscscssscccccccccssscsscsssscssscsscssscssccscssscssssscssscscccscsccccccccccscccccssscssscsssssssssccsscsccccsssscccccscccscsscccsssssss" />
                                <rect
                                   style="fill:#ffffff;fill-opacity:1;fill-rule:nonzero;stroke:none"
                                   id="rect3824"
                                   width="81.567795"
                                   height="361.22882"
                                   x="-102.75423"
                                   y="-319.91525" />
                                <rect
                                   style="fill:#ffffff;fill-opacity:1;fill-rule:nonzero;stroke:none"
                                   id="rect3828"
                                   width="508.47458"
                                   height="103.81356"
                                   x="-558.2627"
                                   y="-1.0593224" />
                                <rect
                                   style="fill:#ffffff;fill-opacity:1;fill-rule:nonzero;stroke:none"
                                   id="rect3830"
                                   width="99.576271"
                                   height="369.7034"
                                   x="-627.03552"
                                   y="-332.80499" />
                                </g>
                                <rect
                                   style="fill:#ffffff;fill-opacity:1;fill-rule:nonzero;stroke:none"
                                   id="rect3913"
                                   width="510.10562"
                                   height="59.175251"
                                   x="-581.45093"
                                   y="-332.12405" />
                                </g>
                                <rect
                                   style="fill:#ffffff;fill-opacity:1;stroke:none"
                                   id="rect3977"
                                   width="458.15677"
                                   height="19.597458"
                                   x="1846.754"
                                   y="-170.63966" />
                                </g>
                                </g>
                                <rect
                                   style="fill:#ffffff;fill-opacity:1;stroke:none"
                                   id="rect3959"
                                   width="569.91528"
                                   height="133.47458"
                                   x="-1397.7754"
                                   y="183.26271" />
                                </g>
                                <rect
                                   y="88.76947"
                                   x="134.54878"
                                   height="152.05792"
                                   width="25.842356"
                                   id="rect4202"
                                   style="fill:#ffffff;fill-opacity:1;fill-rule:nonzero;stroke:none" />
                                </g>
                                <rect
                                   style="fill:#ffffff;fill-opacity:1;fill-rule:nonzero;stroke:none"
                                   id="rect4224"
                                   width="118.16324"
                                   height="20.59898"
                                   x="216.95985"
                                   y="42.708736"
                                   transform="matrix(0.8357354,0.54913235,-0.54913235,0.8357354,0,0)" />
                                </g>
                                </g>
                                <rect
                                   style="fill:#ffffff;fill-opacity:1;fill-rule:nonzero;stroke:none"
                                   id="rect4248"
                                   width="5.711535"
                                   height="6.1796937"
                                   x="246.25145"
                                   y="231.27695" />
                                </g>
                                <rect
                                   style="fill:#ffffff;fill-opacity:1;fill-rule:nonzero;stroke:none"
                                   id="rect4314"
                                   width="11.048544"
                                   height="17.040974"
                                   x="248.68587"
                                   y="221.53925" />
                              </g>
                              <rect
                                 y="237.62051"
                                 x="251.40117"
                                 height="3.1366627"
                                 width="6.7648921"
                                 id="rect4340"
                                 style="fill:#ffffff;fill-opacity:1;fill-rule:nonzero;stroke:none" />
                            </g>
                            <path
                               style="fill:none;stroke:#000000;stroke-width:1.67910790000000000px;stroke-linecap:butt;stroke-linejoin:miter;stroke-opacity:1"
                               d="m 260.32839,241.59164 -11.52013,0"
                               id="path4370"
                               inkscape:connector-curvature="0" />
                            <path
                               inkscape:connector-curvature="0"
                               id="path4400"
                               d="m 260.32839,220.22421 0,22.27669"
                               style="fill:none;stroke:#000000;stroke-width:1.44074535000000000px;stroke-linecap:butt;stroke-linejoin:miter;stroke-opacity:1" />
                          </g>
                        </g>
                      </g>
                      <path
                         style="fill:none;stroke:#000000;stroke-width:1.95125555999999990px;stroke-linecap:butt;stroke-linejoin:miter;stroke-opacity:1"
                         d="m 189.52578,249.80137 32.23023,0"
                         id="path4431"
                         inkscape:connector-curvature="0" />
                    </g>
                  </g>
                  <path
                     style="fill:none;stroke:#000000;stroke-width:1.58240902000000010px;stroke-linecap:butt;stroke-linejoin:miter;stroke-opacity:1"
                     d="m 317.92903,159.56038 0,30.45551"
                     id="path4502"
                     inkscape:connector-curvature="0" />
                </g>
                <rect
                   style="fill:#ffffff;fill-opacity:1;fill-rule:nonzero;stroke:none"
                   id="rect4576"
                   width="211.33475"
                   height="25.423729"
                   x="96.088036"
                   y="152.01271" />
              </g>
              <rect
                 transform="matrix(0.84376359,-0.53671502,0.53671502,0.84376359,0,0)"
                 y="233.61818"
                 x="-58.483013"
                 height="17.478813"
                 width="118.11441"
                 id="rect4616"
                 style="fill:#ffffff;fill-opacity:1;fill-rule:nonzero;stroke:none;opacity:1" />
              <rect
                 transform="matrix(0.8260936,-0.56353293,0.56353293,0.8260936,0,0)"
                 y="241.92348"
                 x="92.959923"
                 height="17.478813"
                 width="118.11441"
                 id="rect4616-5"
                 style="fill:#ffffff;fill-opacity:1;fill-rule:nonzero;stroke:none" />
              <rect
                 transform="matrix(-0.82316532,-0.56780178,-0.56780178,0.82316532,0,0)"
                 y="23.150806"
                 x="-234.83757"
                 height="17.478813"
                 width="118.11441"
                 id="rect4616-5-4"
                 style="fill:#ffffff;fill-opacity:1;fill-rule:nonzero;stroke:none;opacity:1" />
            </g>
            <path
               inkscape:connector-curvature="0"
               id="path5786"
               d="m 308.48843,111.38979 0,-20.139922"
               style="fill:none;stroke:#000000;stroke-width:1.58991241px;stroke-linecap:butt;stroke-linejoin:miter;stroke-opacity:1" />
            <path
               inkscape:connector-curvature="0"
               id="path5788"
               d="m 293.39926,91.69181 15.46796,0"
               style="fill:none;stroke:#000000;stroke-width:1.11916852px;stroke-linecap:butt;stroke-linejoin:miter;stroke-opacity:1" />
          </g>
        </g>
      </g>
    </g>
  </g>
</svg>
